<svg xmlns="http://www.w3.org/2000/svg" xmlns:xlink="http://www.w3.org/1999/xlink" version="1.1" x="0px" y="0px" viewBox="0 0 100 125" enable-background="new 0 0 100 100" xml:space="preserve"><path d="M60.985,73.873H39.015c-1.4,0-2.535,1.136-2.535,2.536c0,1.4,1.135,2.535,2.535,2.535h21.971c1.4,0,2.535-1.135,2.535-2.535  C63.521,75.009,62.386,73.873,60.985,73.873z"/><path d="M63.521,83.592c0-1.4-1.135-2.535-2.535-2.535H39.015c-1.4,0-2.535,1.135-2.535,2.535c0,1.401,1.135,2.536,2.535,2.536  h21.971C62.386,86.127,63.521,84.993,63.521,83.592z"/><path d="M40.282,88.24c-1.168,0-1.489,0.712-0.723,1.59l4.247,4.852C43.961,94.858,44.273,95,44.508,95h10.984  c0.234,0,0.547-0.142,0.701-0.318l4.247-4.852c0.767-0.878,0.445-1.59-0.723-1.59H40.282z"/><path d="M38.857,71.322h22.285c1.399,0,2.642-1.132,2.898-2.508c2.59-13.855,13.846-22.239,13.846-35.927  C77.887,17.485,65.401,5,50,5S22.113,17.485,22.113,32.887c0,13.688,11.256,22.071,13.846,35.927  C36.216,70.19,37.458,71.322,38.857,71.322z"/><text x="0" y="115" fill="#000000" font-size="5px" font-weight="bold" font-family="'Helvetica Neue', Helvetica, Arial-Unicode, Arial, Sans-serif">Created by trang5000</text><text x="0" y="120" fill="#000000" font-size="5px" font-weight="bold" font-family="'Helvetica Neue', Helvetica, Arial-Unicode, Arial, Sans-serif">from the Noun Project</text></svg>